grf
version=1
nRows=12
nColumns=28
inDegrees=no
endheader
time	ground_force_1_vx	ground_force_1_vy	ground_force_1_vz	ground_force_1_px	ground_force_1_py	ground_force_1_pz	ground_moment_1_mx	ground_moment_1_my	ground_moment_1_mz	ground_force_2_vx	ground_force_2_vy	ground_force_2_vz	ground_force_2_px	ground_force_2_py	ground_force_2_pz	ground_moment_2_mx	ground_moment_2_my	ground_moment_2_mz	ground_force_3_vx	ground_force_3_vy	ground_force_3_vz	ground_force_3_px	ground_force_3_py	ground_force_3_pz	ground_moment_3_mx	ground_moment_3_my	ground_moment_3_mz
      0.00000000	      0.52575674	      0.28731647	      2.05989492	    302.52622713	  -1224.70137639	      1.96842467	      0.07609757	      0.27516979	    150.77822880	      0.54505935	      0.11626755	      2.45352625	    115.67063780	  -1614.26803630	      0.23846829	     -0.01044989	     -0.13514778	    161.94399362	      1.30658181	     -0.97420739	      4.47452745	    477.84350611	   -234.22327519	      0.28653069	     -0.13223057	      0.97135611	    472.99228490
      0.01000000	      0.38827805	      0.31639754	      2.01716132	    315.80229665	  -1241.62110882	      1.99260271	      0.10219242	      0.36952912	    202.48205808	      0.33297750	      0.41888765	      2.87826949	    240.55425363	  -1679.28242076	      0.19227003	     -0.00843441	     -0.10908166	    130.70965978	      1.66712182	     -1.01566714	      5.18057913	    501.35740538	   -268.86617069	      0.36424833	     -0.12768603	      0.93797223	    456.73633614
      0.02000000	      0.36356138	      0.47366425	      1.76058103	    330.13240028	  -1303.35768311	      2.09803938	      0.06761582	      0.24449967	    133.97265248	      0.40238900	      0.24314114	      2.28390190	    136.81489079	  -1617.51683035	      0.23712145	     -0.01115900	     -0.14431870	    172.93325897	      1.55311722	     -0.70090291	      5.29088110	    498.87936558	   -326.44624379	      0.48180434	     -0.08144457	      0.59828586	    291.32940294
      0.03000000	      0.42949271	      0.31529232	      1.82897317	    310.58109996	  -1228.32582724	      1.97097399	      0.07808716	      0.28236420	    154.72037542	      0.48124917	      0.22545267	      2.44191558	    192.60345824	  -1646.37429261	      0.21663883	     -0.01233595	     -0.15954008	    191.17264201	      1.53168076	     -0.77725979	      5.01809997	    493.45419263	   -287.26220031	      0.39981773	     -0.09280101	      0.68170942	    331.95168611
      0.04000000	      0.60128701	      0.35821837	      2.55441258	    357.54515500	  -1236.16411775	      1.96157615	      0.07848526	      0.28380371	    155.50915070	      0.54287847	      0.01276503	      1.95304546	    128.59303587	  -1429.88918804	      0.39317257	     -0.01319716	     -0.17067806	    204.51898284	      1.48189451	     -0.82378951	      5.22366463	    479.65401712	   -304.04798744	      0.43043170	     -0.09887999	      0.72636518	    353.69636495
      0.05000000	      0.36452320	      0.24803034	      2.69217072	    347.83507661	  -1253.98214434	      1.99899466	      0.05985407	      0.21643308	    118.59367529	      0.58351544	      0.19414856	      2.36716917	    186.93921868	  -1596.98110049	      0.25749363	     -0.01069372	     -0.13830116	    165.72260323	      1.46367811	     -0.81538201	      4.23844501	    484.12954881	   -282.57057891	      0.38757601	     -0.11432251	      0.83980479	    408.93466837
      0.06000000	      0.46617621	      0.37561511	      1.82095411	    316.34386679	  -1287.76511615	      2.07654205	      0.06574588	      0.23773796	    130.26760186	      0.44603199	      0.16711652	      2.79736178	    200.39358886	  -1603.97139564	      0.25252817	     -0.01269936	     -0.16423998	    196.80440155	      1.52399347	     -0.77588855	      4.01278852	    481.97996644	   -258.67650681	      0.33790524	     -0.09710990	      0.71336226	    347.36472494
      0.07000000	      0.79756037	     -0.47360309	      1.78428636	    311.10979581	  -1352.46060507	      2.19725274	     -0.03958780	     -0.14315000	    -78.43849004	      0.48362199	      1.03999521	      2.77118425	    190.61205484	  -1665.72559545	      0.20036101	     -0.02547072	     -0.32941124	    394.72473574	    106.28249168	    158.11925702	   -205.53521717	    542.96529228	   -795.13293760	      1.45664305	      1.06317330	     -7.80999340	  -3802.99933035
      0.08000000	     -0.52753598	      0.78162811	      2.51819650	    291.63047529	  -1147.40690195	      1.83286157	      0.10607292	      0.38356104	    210.17079610	      0.59933185	     -0.58374624	      4.17815697	    295.15279806	  -1757.25019015	      0.13072640	      0.00071387	      0.00923248	    -11.06303826	     19.53508232	    596.47764522	   -765.08561803	    581.91697109	   -778.55232268	      1.43348183	      1.91790331	    -14.08877756	  -6860.39140991
      0.09000000	      0.04053940	      0.27064956	      1.40491171	    269.21059296	  -1317.49040767	      2.15457871	      0.11449779	      0.41402547	    226.86366577	      0.61204761	      0.20516812	      0.15331898	   1088.38923473	  -2031.53419515	     -0.04698715	      0.02158943	      0.27921477	   -334.57563429	   -460.03371991	    669.36456799	  -1715.11262740	    615.69077822	   -743.69982095	      1.37134919	      1.86082405	    -13.66947756	  -6656.21740432
      0.10000000	     -0.52583397	      0.49361564	      1.10870476	    196.21360518	  -1559.68292246	      2.63342076	      0.28761248	      1.04001045	    569.86972647	      0.81569381	      0.58386754	      2.27835711	    167.64830956	  -1708.85652890	      0.16288497	     -0.02026327	     -0.26206357	    314.02380538	  -1130.99464591	    703.70200135	  -2748.23194583	    637.71985877	   -726.39541929	      1.34197065	     -0.12693923	      0.93248631	    454.06502190
      0.11000000	      0.24343820	     -0.08224152	      1.57236303	    327.31457207	  -1396.08820239	      2.26869444	      0.09187849	      0.33223381	    182.04624075	      0.53503581	      0.50974106	      2.16258642	    122.71326050	  -1602.77978266	      0.24851007	     -0.02084980	     -0.26964922	    323.11349731	  -1225.18404942	    888.36863769	  -3036.07887184	    637.62490265	   -737.50404478	      1.36475723	     -2.52919279	     18.57926544	   9046.99023642
